<?xml version="1.0" encoding="UTF-8"?>
<svg id="Calque_1" xmlns="http://www.w3.org/2000/svg" version="1.1" xmlns:xlink="http://www.w3.org/1999/xlink" viewBox="0 0 560 288">
  <!-- Generator: Adobe Illustrator 29.1.0, SVG Export Plug-In . SVG Version: 2.1.0 Build 142)  -->
  <defs>
    <style>
      .st0 {
        fill: url(#linear-gradient9);
      }

      .st0, .st1, .st2, .st3, .st4, .st5, .st6, .st7, .st8, .st9, .st10, .st11 {
        fill-rule: evenodd;
      }

      .st1 {
        fill: url(#linear-gradient10);
      }

      .st2 {
        fill: url(#linear-gradient6);
      }

      .st12 {
        fill: #fff;
        stroke: #fff;
        stroke-miterlimit: 10;
        stroke-width: 1.57px;
      }

      .st3 {
        fill: url(#linear-gradient8);
      }

      .st4 {
        fill: url(#linear-gradient5);
      }

      .st5 {
        fill: url(#linear-gradient1);
      }

      .st6 {
        fill: url(#linear-gradient11);
      }

      .st7 {
        fill: url(#linear-gradient7);
      }

      .st8 {
        fill: url(#linear-gradient4);
      }

      .st9 {
        fill: url(#linear-gradient3);
      }

      .st10 {
        fill: url(#linear-gradient);
      }

      .st11 {
        fill: url(#linear-gradient2);
      }
    </style>
    <linearGradient id="linear-gradient" x1="22.2" y1="113.64" x2="143.5" y2="113.64" gradientUnits="userSpaceOnUse">
      <stop offset=".09" stop-color="#8b6a29"/>
      <stop offset=".22" stop-color="#e0af0c"/>
      <stop offset=".36" stop-color="#573010"/>
      <stop offset=".66" stop-color="#fdca0b"/>
      <stop offset=".91" stop-color="#5a3312"/>
    </linearGradient>
    <linearGradient id="linear-gradient1" x1="144.28" y1="79.95" x2="148.95" y2="79.95" xlink:href="#linear-gradient"/>
    <linearGradient id="linear-gradient2" x1="88.53" y1="185.67" x2="120.02" y2="185.67" xlink:href="#linear-gradient"/>
    <linearGradient id="linear-gradient3" x1="121.99" y1="202.18" x2="133.54" y2="202.18" xlink:href="#linear-gradient"/>
    <linearGradient id="linear-gradient4" x1="137.4" y1="194.3" x2="159.7" y2="194.3" xlink:href="#linear-gradient"/>
    <linearGradient id="linear-gradient5" x1="162.09" y1="182.27" x2="168.72" y2="182.27" xlink:href="#linear-gradient"/>
    <linearGradient id="linear-gradient6" x1="112.81" y1="135.95" x2="173.61" y2="135.95" xlink:href="#linear-gradient"/>
    <linearGradient id="linear-gradient7" x1="67.9" y1="66.64" x2="89.33" y2="66.64" xlink:href="#linear-gradient"/>
    <linearGradient id="linear-gradient8" x1="93.23" y1="72.75" x2="111.16" y2="72.75" xlink:href="#linear-gradient"/>
    <linearGradient id="linear-gradient9" x1="62.56" y1="88.49" x2="92.5" y2="88.49" xlink:href="#linear-gradient"/>
    <linearGradient id="linear-gradient10" x1="28.15" y1="107.42" x2="35.39" y2="107.42" xlink:href="#linear-gradient"/>
    <linearGradient id="linear-gradient11" x1="31.57" y1="96.9" x2="46.03" y2="96.9" xlink:href="#linear-gradient"/>
  </defs>
  <g>
    <path class="st10" d="M109.77,53.67c11.78,5.42,15.65,13.02,14.6,21-1.75,7.51-9.16,14.2-14.93,18.25-12.14,8.54-29.72,15.95-44.66,11.26-10.65-3.35-9.4-14.76-9.32-15.64,0,.02,0,.04-.02.06-1.14,5.61.16,11.93,4.77,15.74,4.17,3.46,11.26,4.39,16.51,4.37,4.69-.02,9.51-.87,14.13-2-2.88,1.51-5.85,2.88-8.95,4.06-12.36,4.68-22.69,2.7-33.28,5.37-18.8,4.73-25.98,22.08-26.41,23.16.56-1.13,9.8-18.42,44.07-17.53.27-.02,1.03.08,1.3.06-13.82,9.23-21.56,22.51-8.26,51.77-2.67-41.09,35.03-45.49,57.29-56.56,1.9-2.91,3.96-5.8,6.19-8.65,4.29-5.5,8.99-10.54,13.57-14.6.92-.81,1.86-1.61,2.8-2.36,1.2-1.01,2.43-2,3.66-2.94,3.52-14.95-6.35-29.74-33.04-34.83Z"/>
    <path class="st5" d="M148.95,84.29c-.45.29-.92.58-1.39.88-.33.21-.66.43-.99.66-.2-3.63-1-7.35-2.3-11.75,0,0,2.34,3.49,3.02,5.2.65,1.61,1.19,3.29,1.65,5.01Z"/>
    <path class="st11" d="M119.83,217.08c-12.19-29.52-45.16-42.73-24.81-62.82,2.8-.06,5.05.57,7.05,1.49-.05.8-.09,1.58-.09,2.37,0,.23,0,.45,0,.67,0,2.66.25,5.31.76,8.12,1.59,8.47,6.46,14.22,14.53,17.11.05.02.12.04.17.05-4.64,10.77,3.95,23.42,2.4,33.02Z"/>
    <path class="st9" d="M133.54,219.01c-11.02-8.4-12.98-21.29-10.71-33.66.12.02.23.04.34.05,1.53.21,3.16.32,4.82.32,1.2,0,2.41-.06,3.63-.19,0,.02-.02.05-.02.09-1.93,6.3-2.44,14.04-1.77,20.77.51,4.88,2.61,8.67,3.7,12.62Z"/>
    <path class="st8" d="M159.7,209.01c-15.35-2.58-20.21-15.57-22.3-24.43.05,0,.09-.02.14-.03,4.16-1.01,8.52-2.66,12.98-4.95-.09,1.85-.2,3.91-.33,6.19-.7,12.37,3.02,16.23,9.5,23.21Z"/>
    <path class="st4" d="M163.06,196.05c1.03-10.09,3.64-14.03-.98-23.52.13-.09.26-.19.39-.28,1.64-1.16,3.32-2.43,5-3.77,2.15,6.29,1.99,14.71-4.42,27.57Z"/>
    <path class="st2" d="M173.61,149.48c-.31.31-.63.6-.94.9-7.22.14-11.45-.94-16.92-4.21-.23,5.06,3.24,8.77,6.63,13.3-.09.07-.16.13-.25.2-1.9,1.53-3.76,2.94-5.54,4.23-.05.04-.1.07-.15.1-4.19-4.82-8.4-7.56-9.01-9.08,2.04,4.99,3.04,7.7,3.3,12.87-.73.45-1.44.87-2.15,1.27-4.68,2.67-9.19,4.53-13.38,5.54-.82.2-1.62.36-2.37.49-1.64.27-3.24.42-4.76.42-1.04,0-2.14-.09-3.29-.25-.82-.12-1.67-.27-2.53-.48l-.12-.04c-5.32-1.61-8.07-4.65-8.94-9.95-.2-1.07-.32-2.24-.38-3.55,9.44,2.05,5.09-8.84,9.8-9.51,4.46-.67,4.21,0,3.7-5.13,3.03-.34,4.8-.42,4.54-3.2-.42-4.04-2.52-5.38,5.22-6.48,11.27-1.6-3.95-10.81,4.21-27.67,1.14-2.37,2.12-4.54,2.94-6.57,1.75-1.6,3.52-3.08,5.29-4.43l.49-.38c.49-.36.97-.72,1.47-1.07.19-.13.38-.27.58-.42.16,1.52.29,3.06.41,4.62.93,13.88-.34,33.39,12.03,42.64,3.7,2.69,4.46,3.2,8.58,4.96l1.54.86Z"/>
    <path class="st7" d="M81.8,65.09c.22-.2,3.94,3.88,7.32,10.36,0-.07.02-.12.03-.19,2.17-14.75-15.95-20-21.25-20.86,8.08,6.49,8.79,27.64,20.33,24.07-2.51-5.33-5.18-11.18-6.44-13.38Z"/>
    <path class="st3" d="M99.24,70.73c-1.98,2-3.48,3.5-5.75,8.96-.01-.06-.02-.1-.03-.16-2.37-12.3,14.66-16.91,17.71-17.2-5.43,5.65-10.35,25.43-16.82,19.86,1.04-5.12,3.55-9.27,4.9-11.47Z"/>
    <path class="st0" d="M76.98,86.03c3.07-1.35,5.37-2.37,12.42-2.57-.06-.04-.1-.07-.16-.11-12.66-7.88-25.06,9.09-26.68,12.35,8.6-3.63,34.43-2.15,29.26-10.22-6.13-1.03-11.82-.01-14.84.56Z"/>
    <path class="st1" d="M28.15,109.48c.12-.2,4.49-.6,6.35-2.12,2.45-1.39-.38-3.98-5.12.58-.44.48-.85.99-1.22,1.55Z"/>
    <path class="st6" d="M31.57,97.49c4.68-.58,6.81-3.07,10.96-3.45,4.87-.45,5.95,7.58-5.26,5.34-2.47-.49-4.59-1.56-5.7-1.88Z"/>
  </g>
  <g>
    <path class="st12" d="M248.22,136.89v.06c-.06.39-.4.39-.73.39-.4-.06-.85-.06-1.13-.11-3.21.17-6.37.34-9.53.51-1.01.06-2.09.11-3.1.11-.9,0-1.86-.06-2.76-.17-.45-.06-1.18,0-1.18-.62.06-.56.73-.56,1.24-.62.9-.11,1.8-.17,2.71-.17,4-.06,8.01-.06,12.01-.06.62,0,1.24.06,1.86.23.34.06.62.23.62.45Z"/>
    <path class="st12" d="M325.24,93.47c.06-.34.06-.68.06-1.02,0-2.99-1.92-5.24-5.07-5.7-.85-.11-1.69-.17-2.59-.17-7.33,0-14.77,4.23-20.53,8.35-16.86,12.01-36.03,38.29-36.03,60.28,0,1.92.11,3.83.45,5.7,1.07,6.54,4.96,10.49,11.22,12.29,2.09.51,4.23.79,6.32.79,20.19,0,42.18-21.99,55.26-36.03.39-.4.68-.56.9-.56.11,0,.23.06.23.23,0,.23-.23.68-.73,1.18-1.35,1.35-2.54,2.76-3.78,4.17-12.46,13.59-33.04,32.25-51.93,32.25-2.88,0-5.7-.39-8.46-1.35-5.98-2.14-9.42-6.2-10.6-12.52-.39-2.2-.62-4.4-.62-6.65,0-22.27,18.89-47.42,32.42-58.25,6.6-5.58,16.58-12.18,26-12.18,1.3,0,2.59.11,3.83.4,3.67.79,6.32,4.12,6.32,7.73,0,.34,0,.62-.06.96-.28,2.54-.85,4.96-1.8,7.33-1.86,4.45-4.23,8.68-7.11,12.57-.73,1.02-1.41,1.41-1.97,1.41-.9,0-1.47-.9-1.52-1.64v-.11c0-1.3.9-2.76,1.86-3.38,2.14-1.47,5.58-8.29,6.49-10.6.68-1.75,1.18-3.55,1.47-5.47Z"/>
    <path class="st12" d="M333.64,149.63c-.85,0-1.8-.9-1.97-1.8-.17-.62-.23-1.3-.23-1.92,0-.34,0-.68.06-.96.62-3.61,3.1-8.46,5.92-10.66.68-.56,1.64-.9,2.54-.9,1.35,0,2.65.79,2.65,2.82,0,.34-.06.68-.11,1.01-.11.51-.39,1.69-.56,2.37,1.24.51,2.65.73,4.17.73,3.67,0,7.78-1.3,10.54-2.59.17-.06.34-.11.45-.11.17,0,.28.06.28.17s-.17.34-.62.51c-1.92.96-6.32,2.37-10.21,2.59-.39,0-.79.06-1.18.06-1.47,0-2.88-.17-3.78-.68-1.58,3.38-3.16,6.65-6.32,8.74-.45.34-1.01.62-1.58.62h-.06ZM332.9,147.6c0,.51.11.9.51.9.22,0,.51-.17.96-.45,1.97-1.47,5.07-5.98,5.92-8.51-.79-.73-1.13-1.35-1.58-2.54-2.31,2.59-5.3,6.82-5.75,9.76-.06.28-.06.62-.06.85ZM339.84,136.44c0,.73.51,1.52.9,1.92.28-.9.62-1.75.62-2.54-.11-.23-.39-.34-.62-.34-.39,0-.85.23-.9.73v.23Z"/>
    <path class="st12" d="M353.48,164.18c-2.65,0-4.23-1.52-4.23-3.95,0-1.35.51-3.05,1.58-4.85,3.89-6.65,11.9-11.16,18.72-13.59-.45-1.07-11.73.11-12.8-3.67-.06-.23-.11-.51-.11-.73,0-4.62,9.81-12.07,13.76-12.07.17,0,.34.06.45.06,1.18.17,2.59,1.24,2.93,2.37.06.11.06.23.06.39,0,.85-.68,2.26-1.58,2.26-.51,0-1.01-.34-1.52-1.35-.17-.39-.56-.56-1.13-.56-3.1,0-11,5.64-11,8.68v.11c.11,1.35,2.93,1.8,5.75,2.09,2.88.23,5.75.28,6.65,1.86,3.78-1.35,13.03-3.33,17.03-3.83.28-.06.51-.06.73-.06.39,0,.62.06.62.17s-.23.23-.85.34c-3.5.56-13.2,2.71-16.75,4.23-.11.06-.11.11-.11.23,0,.34.51,1.24.51,2.88,0,.9-.17,2.09-.73,3.55-2.42,6.15-7.95,12.18-14.1,14.6-1.47.56-2.76.85-3.89.85ZM350.16,160.18c0,1.86,1.24,2.82,3.16,2.82.9,0,2.03-.23,3.21-.68,6.2-2.31,12.29-9.36,14.15-15.73.17-.51.23-1.07.23-1.58,0-.73-.17-1.47-.62-2.2-5.98,1.92-15.28,7.27-18.61,12.97-1.07,1.8-1.52,3.27-1.52,4.4Z"/>
    <path class="st12" d="M385.96,151.32c-.56,0-.96-.4-.96-1.3,0-.51.11-1.07.34-1.8,1.24-3.89,2.42-7.84,3.78-11.67.45-1.18,1.41-2.2,2.26-3.21.34-.39.73-.56,1.13-.56.56,0,1.07.4,1.07,1.13,0,.28-.06.56-.17.9-.56,1.35-1.18,2.65-1.92,4.23.73-.28,1.01-.68,1.35-1.01,2.71-2.93,8.18-7.84,12.07-9.14.28-.11.56-.11.79-.11.96,0,1.58.62,1.58,1.64v.34c-.23,2.37-2.37,6.71-3.27,9.3-.56,1.52-.96,3.1-1.35,4.74-.06.17-.11.4-.11.62,0,.34.06.73.06,1.24.85-.62,1.47-.96,1.97-1.41,1.41-1.35,5.13-5.24,6.37-6.2.45-.34.85-.51,1.18-.51.68,0,1.13.51,1.3,1.52.34,2.31-.23,5.47,2.31,6.88.85.45,1.75.68,2.65.68,2.99,0,6.2-2.03,8.46-3.83,1.97-1.58,4.85-4.45,6.65-6.43.11.06.23.17.28.23-1.8,2.31-4.45,4.74-6.77,6.65-2.42,2.03-5.75,4.12-8.97,4.12-.96,0-1.86-.17-2.76-.56-2.88-1.35-2.99-5.3-3.27-8.06-1.64.9-5.81,6.88-8.35,8.06-.34.17-.68.23-1.01.23-.85,0-1.52-.56-1.64-1.64-.06-.34-.06-.68-.06-1.01,0-.68.06-1.41.23-2.03,1.07-3.72,2.54-7.33,3.83-10.94.06-.23.11-.51.11-.85,0-.17,0-.39-.06-.62-.68.45-1.41.85-2.09,1.35-4.12,2.99-7.44,6.82-10.43,10.88-1.64,2.14-2.99,4.45-4.51,6.65-.68.96-1.47,1.52-2.09,1.52Z"/>
    <path class="st12" d="M434.34,148.51c-2.93,0-4.12-2.2-4.12-4.45,0-.9.17-1.8.51-2.59,1.64-4,4.51-6.88,8.57-8.57.56-.28,1.07-.34,1.52-.34,1.18,0,1.8.85,1.8,1.8,0,.56-.17,1.13-.51,1.58-.56.79-1.13,1.64-1.92,2.14-1.58,1.07-3.33,2.03-5.02,2.99-.51.28-1.07.45-1.64.45-.34,0-.68-.06-1.07-.17-.68,1.01-.96,2.03-.96,2.93,0,1.8,1.3,3.04,3.61,3.04.62,0,1.24-.06,1.92-.23,5.53-1.35,14.55-6.26,18.89-9.59.11-.11.23-.17.34-.17.06,0,.11.06.11.17,0,.06-.06.17-.23.34-4.06,3.55-15.68,10.38-21.48,10.66h-.34ZM433.44,139.77c2.43-.73,6.03-3.61,6.32-5.02-2.71.85-4.51,2.76-6.32,5.02Z"/>
    <path class="st12" d="M436.14,116.08c-.79,0-.96-.23-1.13-.51-.06-.11-.11-.28-.11-.39,0-.39.28-.85,1.35-1.18,1.58-.56,3.1-.68,4.74-.68h3.1c5.92-.23,18.21-.85,24.19-1.02.9-.06,1.07-.34,1.47-1.07.73-1.3,4.79-8.74,5.92-9.98.45-.51,1.01-.9,1.64-.9.45,0,.9.17,1.35.56.11.11.17.23.17.39,0,.45-.39,1.07-.79,1.64-1.24,2.14-4.29,6.6-5.47,8.46-.17.28-.28.45-.28.62s.17.23.56.23c1.13-.06,2.88-.06,5.02-.06,10.09,0,28.93.4,34.34.56,1.41.06,3.21.11,4.62.23.62.11.85.34.85.56,0,.39-.51.79-.56.79h-.06c-.39,0-1.64-.51-1.92-.56-1.97-.17-8.46-.23-15.9-.23-11.22,0-24.59.17-27.46.28-.85,0-1.47.85-1.75,1.3-6.26,11.39-19.45,34.4-22.95,46.35-.11.39-.17.9-.23,1.3.34.28,1.07.28,1.07.79,0,.06,0,.11-.06.23-.23.51-.85,1.02-1.41,1.02s-1.07-.45-1.07-1.64c0-.45.06-.96.23-1.58,2.14-9.42,17.14-38.23,22.1-46.58.23-.34.28-.56.28-.73,0-.28-.28-.34-.85-.34-8.63.45-20.13.34-29.32,1.97-.73.11-1.3.17-1.69.17Z"/>
    <path class="st12" d="M468.11,148.84c-1.8,0-2.88-1.18-2.88-3.16v-.11c.06-3.67,2.82-8.06,5.24-10.55.79-.79,1.35-1.07,1.8-1.07.56,0,.85.45.85.96,0,.17,0,.34-.06.45-.11.39-.51.73-.79,1.13-1.41,2.14-2.93,4.29-4.29,6.48-.45.79-.9,1.97-.9,2.99s.39,1.75,1.47,1.75h.34c3.61-.4,12.97-5.36,16.07-7.33,1.47-.96,2.93-2.03,4.4-3.05.06-.06.17-.06.23-.06s.17,0,.17.11c0,.06-.11.23-.45.45-5.53,4-13.36,9.42-20.24,10.88-.34.06-.68.11-.96.11ZM474.82,131.48c-.73,0-1.13-.56-1.13-1.18,0-.73.56-1.52,1.8-1.52.39,0,.79.06,1.24.23.51.17.79.45.79.73,0,.56-.68,1.18-2.14,1.64-.23.06-.4.11-.56.11Z"/>
    <path class="st12" d="M490.89,150.37c-2.48,0-4.17-1.47-4.34-4.12v-.62c0-4.51,3.27-9.3,6.09-12.46,1.52-1.75,2.88-2.37,3.95-2.37,1.64,0,2.59,1.41,2.59,2.88,0,.79-.28,1.64-.9,2.2-.23.23-.45.28-.68.28-.34,0-.62-.23-.73-.68-.17-.56-.23-1.07-.39-1.8-.39.23-.79.34-1.01.56-2.88,2.42-6.88,8.18-7.05,12.07v.28c0,1.92,1.35,2.65,2.93,2.65.73,0,1.41-.11,2.14-.34,5.53-1.8,12.8-7.84,17.2-11.45.06-.06.17-.11.23-.11s.11.06.11.17c0,.06,0,.11-.11.23-3.89,4.06-12.01,10.43-17.42,12.18-.96.28-1.8.45-2.59.45Z"/>
    <path class="st12" d="M507.3,164.18c-2.65,0-4.23-1.52-4.23-3.95,0-1.35.51-3.05,1.58-4.85,3.89-6.65,11.9-11.16,18.72-13.59-.45-1.07-11.73.11-12.8-3.67-.06-.23-.11-.51-.11-.73,0-4.62,9.81-12.07,13.76-12.07.17,0,.34.06.45.06,1.18.17,2.59,1.24,2.93,2.37.06.11.06.23.06.39,0,.85-.68,2.26-1.58,2.26-.51,0-1.02-.34-1.52-1.35-.17-.39-.56-.56-1.13-.56-3.1,0-11,5.64-11,8.68v.11c.11,1.35,2.93,1.8,5.75,2.09,2.88.23,5.75.28,6.65,1.86,3.78-1.35,13.03-3.33,17.03-3.83.28-.06.51-.06.73-.06.39,0,.62.06.62.17s-.23.23-.85.34c-3.5.56-13.2,2.71-16.75,4.23-.11.06-.11.11-.11.23,0,.34.51,1.24.51,2.88,0,.9-.17,2.09-.73,3.55-2.42,6.15-7.95,12.18-14.1,14.6-1.47.56-2.76.85-3.89.85ZM503.97,160.18c0,1.86,1.24,2.82,3.16,2.82.9,0,2.03-.23,3.21-.68,6.2-2.31,12.29-9.36,14.15-15.73.17-.51.23-1.07.23-1.58,0-.73-.17-1.47-.62-2.2-5.98,1.92-15.28,7.27-18.61,12.97-1.07,1.8-1.52,3.27-1.52,4.4Z"/>
  </g>
  <path class="st12" d="M249.22,97.53c0,.63-.34,1.25-1.07,1.53-.67.28-1.24.73-1.75,1.24-6.09,5.81-12.63,11-19.23,16.19-11.39,9.02-22.73,18.61-34.46,27.06-.62.45-1.07.9-1.35,1.64-.56,1.52-1.01,2.15-1.01,2.48,0,.62,1.69.11,7.38,2.82,8.97,4.28,20.98,10.38,27.63,17.93.28.28.62.67.62.96,0,.05-.05.17-.11.23s-.11.05-.23.05c-.23,0-.45-.23-.62-.45-6.99-7.72-20.81-14.21-30.23-18.15-1.46-.62-2.93-1.07-4.51-1.41-.16-.05-.28-.05-.39-.05-.28,0-.51.11-.67.56-3.61,8.68-7.33,17.31-9.93,26.33-.28.91-.34,1.97-.9,1.97h-.16c-.17-.05-.23-.28-.23-.5,0-.51.23-1.3.39-1.81,1.97-8.4,5.92-17.93,9.02-26.16.05-.17.12-.34.17-.67-.74-.06-1.41-.12-2.09-.12-1.01,0-1.91.17-2.82.85-1.07.85-1.97,1.18-2.54,1.18-.11,0-.22,0-.31-.04-.31.42-.65.81-1.03,1.19-3.99,3.99-8.45,8.11-13.2,11.93-1.86,1.5-3.75,2.95-5.69,4.33-2.98,2.15-6.05,4.12-9.17,5.83-4.68,2.59-9.47,4.61-14.24,5.76-1.14.27-2.29.5-3.44.67-1.7.26-3.39.39-5.07.39-1.42,0-2.82-.09-4.21-.28-1.35-.18-2.68-.46-4-.85-.35-.11-.71-.23-1.07-.35-6.55-2.35-10.33-6.81-11.63-13.74-.44-2.41-.68-4.82-.68-7.3,0-.19,0-.37,0-.56.2-16.19,9.39-33.71,19.87-47.08,4.3-5.5,8.82-10.29,13.02-14.01.91-.81,1.8-1.56,2.67-2.26,1.35-1.14,2.83-2.33,4.42-3.5,1.15-.84,2.36-1.68,3.6-2.49,6.21-4.05,13.5-7.37,20.5-7.37,1.42,0,2.84.12,4.21.43,4.02.86,6.93,4.52,6.93,8.47,0,.37,0,.68-.06,1.05-.31,2.79-.93,5.45-1.98,8.04-2.04,4.89-4.64,9.53-7.79,13.8-.81,1.11-1.55,1.54-2.17,1.54-.99,0-1.61-.99-1.67-1.79v-.12c0-1.43.99-3.04,2.04-3.71,2.36-1.61,6.13-9.1,7.12-11.64.74-1.91,1.3-3.89,1.61-6,.06-.37.06-.74.06-1.11,0-3.28-2.1-5.76-5.57-6.25-.92-.13-1.86-.19-2.84-.19-6.99,0-14.07,3.51-19.95,7.39-.88.59-1.75,1.17-2.57,1.77-.68.49-1.37.99-2.06,1.52h0c-17.96,13.78-37.47,41.37-37.47,64.61v.05c0,2.09.13,4.17.49,6.2,1.16,7.07,5.33,11.38,12.02,13.4.09.03.19.05.29.09,1,.24,2.01.44,3.03.58,1.3.19,2.61.29,3.9.29,1.82,0,3.65-.16,5.49-.47.89-.15,1.79-.34,2.69-.56,4.86-1.17,9.74-3.27,14.53-6,2.84-1.61,5.65-3.43,8.4-5.4,1.95-1.39,3.87-2.87,5.75-4.39,5.29-4.27,10.03-9,14.46-13.49.29-.3.57-.59.86-.88.31-.23.68-.45,1.14-.64.03-.02.06-.02.09-.04.25-.11.52-.2.82-.3.56-.16,1.07-.39,1.52-.73,1.86-1.25,3.67-2.48,5.53-3.67.62-.4,1.02-.91,1.3-1.64,5.24-12.97,11.22-25.6,17.76-37.95,2.54-4.74,5.47-9.19,8.85-13.31.45-.62,1.07-1.18,1.81-1.18.28,0,.56.12.9.34.39.28.51.68.51,1.07,0,.45-.23.96-.56,1.41-7.17,9.65-12.58,20.3-17.99,30.96-2.59,5.07-5.76,11.45-8.07,16.64.05.05.11.11.17.22.39-.28.73-.56,1.13-.85,8.23-6.42,16.3-13.02,24.42-19.68,6.54-5.36,13.13-10.71,19.51-16.35,1.58-1.41,6.26-5.92,7.72-6.77.34-.23.68-.28.96-.28.9,0,1.46.74,1.46,1.52Z"/>
</svg>